<?xml version="1.0" encoding="utf-8"?>
<!-- Generator: Adobe Illustrator 17.0.0, SVG Export Plug-In . SVG Version: 6.00 Build 0)  -->
<!DOCTYPE svg PUBLIC "-//W3C//DTD SVG 1.1//EN" "http://www.w3.org/Graphics/SVG/1.1/DTD/svg11.dtd">
<svg version="1.1" id="Ebene_1" xmlns="http://www.w3.org/2000/svg" xmlns:xlink="http://www.w3.org/1999/xlink" x="0px" y="0px"
	 width="73.989px" height="47.462px" viewBox="0 0 73.989 47.462" enable-background="new 0 0 73.989 47.462" xml:space="preserve">
<path d="M65.961,29.013L60.379,2.094L45.021,0L31.063,10.12l-6.283,0.699H3.841L0,27.921l9.074-11.519l0.698,28.619l4.887,2.441
	l0.698-19.82l2.094,2.742l0.697-2.463l3.49,18.912l5.934,0.281l-3.49-18.846l6.981,2.793h4.536l0.614,16.053l3.924-0.281V32.107
	h5.67v14.727l3.055-0.766l1.059-15.684l7.316-6.654l5.235,8.727l8.011,13.611l3.506-4.19L65.961,29.013z M50.845,16.076
	c0.727-0.503,1.2-1.254,1.2-2.106c0-1.514-1.465-2.741-3.271-2.741c-1.807,0-3.271,1.228-3.271,2.741
	c0,0.873,0.497,1.642,1.257,2.144c-2.773-0.685-4.79-2.773-4.79-5.244c0-3.028,3.027-5.483,6.762-5.483
	c3.734,0,6.762,2.455,6.762,5.483C55.493,13.299,53.544,15.356,50.845,16.076z"/>
</svg>
