<svg width="512" height="512" viewBox="0 0 512 512" fill="none" xmlns="http://www.w3.org/2000/svg">
<path d="M460.828 255.228C456.131 250.893 450.713 247.281 444.571 244.391C438.43 241.501 431.928 239.695 425.425 238.25C418.562 236.805 412.42 235.36 408.085 233.915C403.389 232.108 399.777 230.302 397.248 228.496C394.719 226.328 392.552 224.161 391.468 221.993C390.384 219.465 389.662 216.936 389.662 213.685C389.662 211.517 390.023 209.35 391.107 207.182C392.19 205.015 393.635 202.847 395.803 201.041C397.97 199.235 400.499 197.79 403.75 196.345C407.002 195.261 410.975 194.539 415.31 194.539C420.368 194.539 424.703 195.261 428.676 196.706C432.65 198.151 435.901 199.596 438.791 201.402C441.681 203.209 443.849 205.015 446.016 206.821C447.823 208.627 449.268 209.711 449.99 210.433L466.969 185.146L466.246 184.424C463.718 181.895 460.466 179.005 456.131 176.476C451.796 173.586 446.378 171.419 439.875 169.251C433.373 167.084 425.425 166 416.394 166C406.279 166 397.609 167.445 390.023 169.974C382.437 172.864 376.296 176.476 371.238 180.811C366.181 185.507 362.568 190.565 360.039 196.345C357.511 202.125 356.427 208.627 356.427 215.13C356.427 220.91 357.511 226.328 359.317 231.747C361.123 237.166 364.013 242.223 367.626 246.558C371.238 250.893 376.296 254.867 381.714 258.118C387.494 261.369 394.358 263.898 402.305 265.343C409.892 266.788 416.394 268.594 421.813 270.401C426.87 272.207 431.205 274.013 434.456 276.181C437.708 278.348 439.875 280.877 441.32 283.767C442.765 286.657 443.488 289.908 443.488 293.521C443.488 300.023 440.959 305.442 436.263 310.138C431.205 314.834 423.98 317.002 413.865 317.002C408.447 317.002 403.389 316.279 399.054 314.834C394.719 313.389 390.745 311.222 387.133 309.054C383.52 306.887 380.631 304.358 377.741 301.468C374.851 298.939 372.322 296.411 370.516 293.882L352.814 320.253C354.259 322.059 356.066 323.504 357.872 325.31C361.846 328.923 366.542 332.535 372.322 335.787C377.741 339.038 384.243 341.567 391.107 343.734C397.97 345.901 405.918 346.985 414.227 346.985C423.258 346.985 431.205 345.54 438.791 343.011C446.378 340.483 452.88 336.509 458.299 331.813C463.718 327.117 468.053 321.337 471.304 315.195C474.555 308.693 476 301.829 476 294.243C476 285.573 474.555 277.987 471.665 271.846C469.136 264.982 465.524 259.563 460.828 255.228ZM283.816 168.529H245.524L193.143 307.248L206.87 343.373H216.985L232.158 298.939H297.182L312.355 343.373H349.924L283.816 168.529ZM241.55 271.846L264.67 203.931L287.79 271.846H241.55Z" fill="black"/>
<path d="M140.401 168.529H102.47L36 343.373H73.5698L88.7422 298.939H153.767L168.939 343.373H206.509L140.401 168.529ZM98.4959 271.845L121.616 203.931L144.374 271.845H98.4959Z" fill="#0086C5"/>
</svg>
