<?xml version="1.0" standalone="no"?>
<!DOCTYPE svg PUBLIC "-//W3C//DTD SVG 20010904//EN"
 "http://www.w3.org/TR/2001/REC-SVG-20010904/DTD/svg10.dtd">
<svg version="1.0" xmlns="http://www.w3.org/2000/svg"
 width="700.000000pt" height="700.000000pt" viewBox="0 0 700.000000 700.000000"
 preserveAspectRatio="xMidYMid meet">
<metadata>
Created by potrace 1.14, written by Peter Selinger 2001-2017
</metadata>
<g transform="translate(0.000000,700.000000) scale(0.100000,-0.100000)"
fill="#000000" stroke="none">
<path d="M5444 4705 c-126 -29 -187 -54 -292 -123 -278 -181 -357 -527 -194
-852 34 -68 166 -202 244 -249 101 -59 182 -86 381 -126 38 -8 173 -46 192
-54 11 -5 40 -17 65 -27 148 -60 217 -145 221 -272 3 -91 -26 -168 -90 -232
-69 -70 -163 -101 -311 -101 -200 -1 -361 73 -531 244 l-66 67 -116 -175 c-65
-96 -117 -179 -117 -184 0 -26 163 -157 268 -215 403 -224 889 -194 1185 73
35 31 100 112 135 166 53 84 83 194 87 317 6 208 -67 411 -194 535 -131 129
-262 192 -528 253 -168 39 -242 63 -310 101 -126 72 -176 197 -125 313 26 58
76 104 152 140 59 28 74 30 170 30 111 1 134 -3 208 -30 87 -33 165 -83 246
-156 11 -10 23 -18 26 -18 7 0 217 309 226 333 8 22 -123 120 -220 166 -79 37
-185 73 -256 87 -19 3 -107 8 -195 9 -137 2 -175 -1 -261 -20z"/>
<path d="M1401 4686 c-5 -6 -54 -130 -109 -276 -55 -146 -105 -276 -111 -290
-5 -14 -49 -128 -96 -255 -48 -126 -93 -244 -101 -262 -8 -17 -14 -34 -14 -37
0 -4 -15 -46 -34 -94 -18 -48 -61 -161 -95 -252 -35 -91 -67 -174 -72 -185 -8
-18 -232 -609 -264 -695 l-12 -35 253 0 c139 0 255 3 258 6 3 3 51 137 106
299 55 161 102 295 104 298 5 5 886 6 890 1 1 -2 35 -101 75 -219 39 -118 85
-253 102 -300 l30 -85 324 0 c178 0 326 3 330 6 3 3 50 138 106 300 55 161
101 295 103 297 5 4 887 5 890 0 2 -2 47 -133 101 -293 54 -159 102 -294 107
-300 10 -11 508 -14 508 -3 0 4 -5 19 -11 35 -6 15 -21 55 -34 88 -121 325
-287 764 -295 780 -5 11 -23 58 -40 105 -17 47 -35 94 -40 105 -5 11 -38 99
-74 195 -36 96 -101 272 -146 390 -45 118 -120 316 -166 440 -47 123 -89 229
-94 235 -6 7 -96 11 -266 10 l-257 0 -74 -195 c-73 -194 -127 -337 -142 -375
-73 -183 -491 -1303 -491 -1313 0 -40 -27 19 -119 266 -57 152 -118 315 -136
362 -18 47 -49 130 -70 185 -20 55 -41 109 -46 120 -5 11 -72 189 -149 395
-77 206 -145 384 -150 395 -4 11 -20 52 -34 91 l-26 70 -256 0 c-167 0 -258
-3 -263 -10z m418 -940 c83 -247 148 -452 145 -455 -7 -8 -614 -9 -614 -2 0 3
13 44 29 91 292 857 280 824 285 819 2 -2 72 -206 155 -453z m1835 366 c14
-42 81 -243 150 -447 69 -203 126 -372 126 -375 0 -3 -139 -6 -310 -6 -234 0
-310 3 -310 12 0 10 77 244 97 294 3 8 7 20 8 25 3 9 121 356 178 522 12 34
25 59 29 57 4 -3 18 -39 32 -82z m-946 -1487 c-3 -3 -9 2 -12 12 -6 14 -5 15
5 6 7 -7 10 -15 7 -18z"/>
</g>
</svg>
