<?xml version="1.0" standalone="no"?>
<!DOCTYPE svg PUBLIC "-//W3C//DTD SVG 20010904//EN"
 "http://www.w3.org/TR/2001/REC-SVG-20010904/DTD/svg10.dtd">
<svg version="1.0" xmlns="http://www.w3.org/2000/svg"
 width="512.000000pt" height="512.000000pt" viewBox="0 0 512.000000 512.000000"
 preserveAspectRatio="xMidYMid meet">
<metadata>
Created by potrace 1.14, written by Peter Selinger 2001-2017
</metadata>
<g transform="translate(0.000000,512.000000) scale(0.100000,-0.100000)"
fill="#000000" stroke="none">
<path d="M4217 3514 c-1 -1 -31 -4 -67 -7 -160 -15 -287 -68 -390 -163 -200
-186 -192 -532 17 -724 86 -79 179 -123 324 -155 205 -45 320 -92 375 -151 81
-87 65 -242 -33 -323 -52 -44 -130 -65 -233 -64 -143 2 -259 55 -381 174 l-68
66 -92 -139 -92 -139 39 -40 c105 -109 332 -218 489 -235 66 -7 213 -4 263 5
236 46 419 195 483 393 23 74 26 227 4 308 -24 90 -81 194 -134 245 -104 100
-189 140 -409 195 -168 42 -237 69 -284 113 -118 110 -53 285 123 327 131 32
313 -26 420 -134 l27 -26 90 134 91 135 -27 26 c-96 96 -290 170 -465 177 -38
2 -69 2 -70 2z"/>
<path d="M934 3455 c-6 -16 -26 -68 -44 -115 -17 -47 -35 -94 -40 -105 -5 -11
-45 -117 -90 -235 -44 -118 -84 -224 -89 -235 -6 -11 -50 -128 -100 -260 -49
-132 -142 -377 -205 -544 -64 -168 -116 -307 -116 -310 0 -4 89 -6 197 -6
l197 0 78 229 c43 127 80 232 83 234 2 3 156 5 342 4 l337 0 78 -228 c43 -125
81 -230 84 -233 3 -3 118 -6 255 -6 l249 0 38 110 c22 60 56 160 76 220 20 61
41 116 45 124 7 11 69 14 341 13 183 0 336 -4 340 -9 7 -6 133 -364 157 -443
3 -13 33 -15 199 -15 121 0 194 4 194 10 0 13 -19 71 -35 110 -7 17 -29 75
-50 130 -20 55 -41 111 -47 125 -10 25 -241 636 -264 700 -7 19 -75 199 -151
400 l-139 365 -203 0 -203 0 -164 -435 c-91 -239 -194 -514 -231 -610 -36 -96
-77 -204 -90 -240 -14 -36 -32 -86 -41 -112 -9 -27 -18 -48 -22 -48 -7 0 -1
-15 -129 325 -56 149 -106 279 -111 290 -4 11 -39 101 -75 200 -37 99 -79 212
-95 250 -15 39 -53 140 -85 225 l-58 155 -200 0 -200 0 -13 -30z m334 -705
c62 -184 112 -338 112 -342 0 -5 -106 -8 -236 -8 l-235 0 6 23 c15 46 156 463
168 492 6 17 12 32 12 35 4 28 51 148 55 143 4 -5 57 -159 118 -343z m1516
-34 c58 -170 106 -311 106 -313 0 -2 -108 -3 -240 -3 l-239 0 114 338 c63 185
118 344 121 352 5 10 11 2 19 -25 7 -22 61 -179 119 -349z"/>
</g>
</svg>
